<svg xmlns="http://www.w3.org/2000/svg" version="1.1" xmlns:xlink="http://www.w3.org/1999/xlink" xmlns:svgjs="http://svgjs.dev/svgjs" width="1000" height="623.5" viewBox="0 0 2000 1247"><g transform="matrix(1,0,0,1,-1.2121212121212466,0.504858299595071)"><svg viewBox="0 0 396 247" data-background-color="#734444" preserveAspectRatio="xMidYMid meet" height="1247" width="2000" xmlns="http://www.w3.org/2000/svg" xmlns:xlink="http://www.w3.org/1999/xlink"><g id="tight-bounds" transform="matrix(1,0,0,1,0.2400000000000091,-0.09999999999999432)"><svg viewBox="0 0 395.52 247.2" height="247.2" width="395.52"><g><svg></svg></g><g><svg viewBox="0 0 395.52 247.2" height="247.2" width="395.52"><mask id="dcaa08fe-e0c7-4128-93c7-c3fe80ac9d14"><rect width="640" height="400" fill="white"></rect><g transform="matrix(1,0,0,1,39.55199999999999,89.99461750660095)"><svg viewBox="0 0 316.416 67.21076498679808" height="67.21076498679808" width="316.416"><g><svg viewBox="0 0 316.416 67.21076498679808" height="67.21076498679808" width="316.416"><g><svg viewBox="0 0 316.416 67.21076498679808" height="67.21076498679808" width="316.416"><g><svg viewBox="0 0 316.416 67.21076498679808" height="67.21076498679808" width="316.416"><g id="SvgjsG1064"><svg viewBox="0 0 316.416 67.21076498679808" height="67.21076498679808" width="316.416" id="SvgjsSvg1063"><g><svg viewBox="0 0 316.416 67.21076498679808" height="67.21076498679808" width="316.416"><g transform="matrix(1,0,0,1,0,0)"><svg width="316.416" viewBox="-2.05 -40.04 205.89000000000001 44.53" height="67.21076498679808" data-palette-color="url(#84e04dd7-e889-4820-bf55-b196aa8d7b80)"><path d="M14.6-15.84L14.6-15.84Q8.57-17.58 5.82-20.1 3.08-22.63 3.08-26.34L3.08-26.34Q3.08-30.54 6.43-33.29 9.79-36.04 15.16-36.04L15.16-36.04Q18.82-36.04 21.69-34.62 24.56-33.2 26.14-30.71 27.71-28.22 27.71-25.27L27.71-25.27 23-25.27Q23-28.49 20.95-30.33 18.9-32.18 15.16-32.18L15.16-32.18Q11.69-32.18 9.75-30.65 7.81-29.13 7.81-26.42L7.81-26.42Q7.81-24.24 9.66-22.74 11.5-21.24 15.93-20 20.36-18.75 22.86-17.25 25.37-15.75 26.57-13.75 27.78-11.74 27.78-9.03L27.78-9.03Q27.78-4.71 24.41-2.11 21.04 0.49 15.41 0.49L15.41 0.49Q11.74 0.49 8.57-0.92 5.4-2.32 3.67-4.76 1.95-7.2 1.95-10.3L1.95-10.3 6.67-10.3Q6.67-7.08 9.05-5.21 11.43-3.34 15.41-3.34L15.41-3.34Q19.12-3.34 21.09-4.86 23.07-6.37 23.07-8.98 23.07-11.6 21.24-13.02 19.41-14.45 14.6-15.84ZM35.45-35.55L45.55-6.23 55.71-35.55 60.84-35.55 47.65 0 43.5 0 30.34-35.55 35.45-35.55ZM86.79 0L83.39-9.28 68.5-9.28 65.16 0 60.32 0 73.9-35.55 78-35.55 91.6 0 86.79 0ZM75.95-29.76L69.92-13.13 82-13.13 75.95-29.76ZM101.09-35.55L101.09-3.83 117.94-3.83 117.94 0 96.38 0 96.38-35.55 101.09-35.55ZM128.31-35.55L128.31 0 123.62 0 123.62-35.55 128.31-35.55ZM164.2-35.55L164.2 0 159.48 0 141.59-27.39 141.59 0 136.88 0 136.88-35.55 141.59-35.55 159.53-8.03 159.53-35.55 164.2-35.55ZM199.84-35.55L199.84 0 195.13 0 177.23-27.39 177.23 0 172.52 0 172.52-35.55 177.23-35.55 195.18-8.03 195.18-35.55 199.84-35.55Z" opacity="1" transform="matrix(1,0,0,1,0,0)" fill="black" class="wordmark-text-0" id="SvgjsPath1062" stroke-width="7" stroke="black" stroke-linejoin="round"></path></svg></g></svg></g></svg></g></svg></g></svg></g></svg></g></svg></g></mask><g transform="matrix(1,0,0,1,39.55199999999999,89.99461750660095)"><svg viewBox="0 0 316.416 67.21076498679808" height="67.21076498679808" width="316.416"><g><svg viewBox="0 0 316.416 67.21076498679808" height="67.21076498679808" width="316.416"><g><svg viewBox="0 0 316.416 67.21076498679808" height="67.21076498679808" width="316.416"><g><svg viewBox="0 0 316.416 67.21076498679808" height="67.21076498679808" width="316.416"><g id="textblocktransform"><svg viewBox="0 0 316.416 67.21076498679808" height="67.21076498679808" width="316.416" id="textblock"><g><svg viewBox="0 0 316.416 67.21076498679808" height="67.21076498679808" width="316.416"><g transform="matrix(1,0,0,1,0,0)"><svg width="316.416" viewBox="-2.05 -40.04 205.89000000000001 44.53" height="67.21076498679808" data-palette-color="url(#84e04dd7-e889-4820-bf55-b196aa8d7b80)"></svg></g></svg></g></svg></g></svg></g></svg></g></svg></g></svg></g><g mask="url(#dcaa08fe-e0c7-4128-93c7-c3fe80ac9d14)"><g transform="matrix(2.452, 0, 0, 2.452, 91.08574, 1)"><svg xmlns="http://www.w3.org/2000/svg" xmlns:xlink="http://www.w3.org/1999/xlink" version="1.1" x="0" y="0" viewBox="6.6080000000000005 0 87.00999999999999 100" enable-background="new 0 0 100 100" xml:space="preserve" height="100" width="87.00999999999999" class="icon-none" data-fill-palette-color="accent" id="none"></svg></g></g></svg></g><defs></defs><mask id="a899efd3-4501-4b1f-bc00-f8eb4cc5ae0a"><g id="SvgjsG1074"><svg viewBox="0 0 395.52 247.2" height="247.2" width="395.52"><g><svg></svg></g><g><svg viewBox="0 0 395.52 247.2" height="247.2" width="395.52"><mask id="SvgjsMask1073"><g transform="matrix(1,0,0,1,39.55199999999999,89.99461750660095)"><svg viewBox="0 0 316.416 67.21076498679808" height="67.21076498679808" width="316.416"><g><svg viewBox="0 0 316.416 67.21076498679808" height="67.21076498679808" width="316.416"><g><svg viewBox="0 0 316.416 67.21076498679808" height="67.21076498679808" width="316.416"><g><svg viewBox="0 0 316.416 67.21076498679808" height="67.21076498679808" width="316.416"><g id="SvgjsG1072"><svg viewBox="0 0 316.416 67.21076498679808" height="67.21076498679808" width="316.416" id="SvgjsSvg1071"><g><svg viewBox="0 0 316.416 67.21076498679808" height="67.21076498679808" width="316.416"><g transform="matrix(1,0,0,1,0,0)"><svg width="316.416" viewBox="-2.05 -40.04 205.89000000000001 44.53" height="67.21076498679808" data-palette-color="url(#84e04dd7-e889-4820-bf55-b196aa8d7b80)"></svg></g></svg></g></svg></g></svg></g></svg></g></svg></g></svg></g></mask><g transform="matrix(1,0,0,1,39.55199999999999,89.99461750660095)"><svg viewBox="0 0 316.416 67.21076498679808" height="67.21076498679808" width="316.416"><g><svg viewBox="0 0 316.416 67.21076498679808" height="67.21076498679808" width="316.416"><g><svg viewBox="0 0 316.416 67.21076498679808" height="67.21076498679808" width="316.416"><g><svg viewBox="0 0 316.416 67.21076498679808" height="67.21076498679808" width="316.416"><g id="SvgjsG1069"><svg viewBox="0 0 316.416 67.21076498679808" height="67.21076498679808" width="316.416" id="SvgjsSvg1068"><g><svg viewBox="0 0 316.416 67.21076498679808" height="67.21076498679808" width="316.416"><g transform="matrix(1,0,0,1,0,0)"><svg width="316.416" viewBox="-2.05 -40.04 205.89000000000001 44.53" height="67.21076498679808" data-palette-color="url(#84e04dd7-e889-4820-bf55-b196aa8d7b80)"><path d="M14.6-15.84L14.6-15.84Q8.57-17.58 5.82-20.1 3.08-22.63 3.08-26.34L3.08-26.34Q3.08-30.54 6.43-33.29 9.79-36.04 15.16-36.04L15.16-36.04Q18.82-36.04 21.69-34.62 24.56-33.2 26.14-30.71 27.71-28.22 27.71-25.27L27.71-25.27 23-25.27Q23-28.49 20.95-30.33 18.9-32.18 15.16-32.18L15.16-32.18Q11.69-32.18 9.75-30.65 7.81-29.13 7.81-26.42L7.81-26.42Q7.81-24.24 9.66-22.74 11.5-21.24 15.93-20 20.36-18.75 22.86-17.25 25.37-15.75 26.57-13.75 27.78-11.74 27.78-9.03L27.78-9.03Q27.78-4.71 24.41-2.11 21.04 0.49 15.41 0.49L15.41 0.49Q11.74 0.49 8.57-0.92 5.4-2.32 3.67-4.76 1.95-7.2 1.95-10.3L1.95-10.3 6.67-10.3Q6.67-7.08 9.05-5.21 11.43-3.34 15.41-3.34L15.41-3.34Q19.12-3.34 21.09-4.86 23.07-6.37 23.07-8.98 23.07-11.6 21.24-13.02 19.41-14.45 14.6-15.84ZM35.45-35.55L45.55-6.23 55.71-35.55 60.84-35.55 47.65 0 43.5 0 30.34-35.55 35.45-35.55ZM86.79 0L83.39-9.28 68.5-9.28 65.16 0 60.32 0 73.9-35.55 78-35.55 91.6 0 86.79 0ZM75.95-29.76L69.92-13.13 82-13.13 75.95-29.76ZM101.09-35.55L101.09-3.83 117.94-3.83 117.94 0 96.38 0 96.38-35.55 101.09-35.55ZM128.31-35.55L128.31 0 123.62 0 123.62-35.55 128.31-35.55ZM164.2-35.55L164.2 0 159.48 0 141.59-27.39 141.59 0 136.88 0 136.88-35.55 141.59-35.55 159.53-8.03 159.53-35.55 164.2-35.55ZM199.84-35.55L199.84 0 195.13 0 177.23-27.39 177.23 0 172.52 0 172.52-35.55 177.23-35.55 195.18-8.03 195.18-35.55 199.84-35.55Z" opacity="1" transform="matrix(1,0,0,1,0,0)" fill="white" class="wordmark-text-0" id="SvgjsPath1067"></path></svg></g></svg></g></svg></g></svg></g></svg></g></svg></g></svg></g><g mask="url(#dcaa08fe-e0c7-4128-93c7-c3fe80ac9d14)"><g transform="matrix(2.452, 0, 0, 2.452, 91.08574, 1)"><svg xmlns="http://www.w3.org/2000/svg" xmlns:xlink="http://www.w3.org/1999/xlink" version="1.1" x="0" y="0" viewBox="6.6080000000000005 0 87.00999999999999 100" enable-background="new 0 0 100 100" xml:space="preserve" height="100" width="87.00999999999999" class="icon-none" data-fill-palette-color="accent" id="SvgjsSvg1066"></svg></g></g></svg></g><defs><mask></mask></defs></svg></g></mask><linearGradient x1="0" x2="1" y1="0.5" y2="0.5" id="84e04dd7-e889-4820-bf55-b196aa8d7b80"><stop stop-color="#f00b51" offset="0"></stop><stop stop-color="#730062" offset="1"></stop></linearGradient><rect width="395.52" height="247.2" fill="url(#84e04dd7-e889-4820-bf55-b196aa8d7b80)" mask="url(#a899efd3-4501-4b1f-bc00-f8eb4cc5ae0a)" data-fill-palette-color="primary"></rect><mask id="580b1311-546c-4824-bde4-6568085a545e"><g id="SvgjsG1090"><svg viewBox="0 0 395.52 247.2" height="247.2" width="395.52"><g><svg></svg></g><g><svg viewBox="0 0 395.52 247.2" height="247.2" width="395.52"><mask id="SvgjsMask1089"><g transform="matrix(1,0,0,1,39.55199999999999,89.99461750660095)"><svg viewBox="0 0 316.416 67.21076498679808" height="67.21076498679808" width="316.416"><g><svg viewBox="0 0 316.416 67.21076498679808" height="67.21076498679808" width="316.416"><g><svg viewBox="0 0 316.416 67.21076498679808" height="67.21076498679808" width="316.416"><g><svg viewBox="0 0 316.416 67.21076498679808" height="67.21076498679808" width="316.416"><g id="SvgjsG1088"><svg viewBox="0 0 316.416 67.21076498679808" height="67.21076498679808" width="316.416" id="SvgjsSvg1087"><g><svg viewBox="0 0 316.416 67.21076498679808" height="67.21076498679808" width="316.416"><g transform="matrix(1,0,0,1,0,0)"><svg width="316.416" viewBox="-2.05 -40.04 205.89000000000001 44.53" height="67.21076498679808" data-palette-color="url(#84e04dd7-e889-4820-bf55-b196aa8d7b80)"></svg></g></svg></g></svg></g></svg></g></svg></g></svg></g></svg></g></mask><g transform="matrix(1,0,0,1,39.55199999999999,89.99461750660095)"><svg viewBox="0 0 316.416 67.21076498679808" height="67.21076498679808" width="316.416"><g><svg viewBox="0 0 316.416 67.21076498679808" height="67.21076498679808" width="316.416"><g><svg viewBox="0 0 316.416 67.21076498679808" height="67.21076498679808" width="316.416"><g><svg viewBox="0 0 316.416 67.21076498679808" height="67.21076498679808" width="316.416"><g id="SvgjsG1085"><svg viewBox="0 0 316.416 67.21076498679808" height="67.21076498679808" width="316.416" id="SvgjsSvg1084"><g><svg viewBox="0 0 316.416 67.21076498679808" height="67.21076498679808" width="316.416"><g transform="matrix(1,0,0,1,0,0)"><svg width="316.416" viewBox="-2.05 -40.04 205.89000000000001 44.53" height="67.21076498679808" data-palette-color="url(#84e04dd7-e889-4820-bf55-b196aa8d7b80)"></svg></g></svg></g></svg></g></svg></g></svg></g></svg></g></svg></g><g mask="url(#dcaa08fe-e0c7-4128-93c7-c3fe80ac9d14)"><g transform="matrix(2.452, 0, 0, 2.452, 91.08574, 1)"><svg xmlns="http://www.w3.org/2000/svg" xmlns:xlink="http://www.w3.org/1999/xlink" version="1.1" x="0" y="0" viewBox="6.6080000000000005 0 87.00999999999999 100" enable-background="new 0 0 100 100" xml:space="preserve" height="100" width="87.00999999999999" class="icon-none" data-fill-palette-color="accent" id="SvgjsSvg1083"><path d="M50.171 6.288c11.637 8.013 30.191 11.898 38.101 13.26 0.301 2.772 0.455 5.527 0.455 8.223 0 27.634-14.728 52.93-38.612 66.642C26.229 80.697 11.5 55.402 11.5 27.771c0-2.669 0.154-5.403 0.455-8.17C20.031 18.318 38.946 14.568 50.171 6.288M50.039 0C38.216 11.699 7.588 15.281 7.588 15.281c-0.628 4.078-0.98 8.24-0.98 12.49 0 31.327 17.64 58.512 43.506 72.229 25.87-13.718 43.504-40.902 43.504-72.229 0-4.25-0.346-8.412-0.973-12.49C92.646 15.281 62.822 11.34 50.039 0L50.039 0z" fill="white"></path><path d="M20.738 26.015c-0.435 2.824-0.677 5.702-0.677 8.638 0 21.633 12.19 40.407 30.053 49.882 17.864-9.476 30.052-28.249 30.052-49.882 0-2.936-0.247-5.814-0.674-8.638 0 0-20.602-2.719-29.432-10.551C41.892 23.542 20.738 26.015 20.738 26.015z" fill="white"></path></svg></g></g></svg></g><defs><mask></mask></defs><mask><g id="SvgjsG1082"><svg viewBox="0 0 395.52 247.2" height="247.2" width="395.52"><g><svg></svg></g><g><svg viewBox="0 0 395.52 247.2" height="247.2" width="395.52"><mask id="SvgjsMask1081"><g transform="matrix(1,0,0,1,39.55199999999999,89.99461750660095)"><svg viewBox="0 0 316.416 67.21076498679808" height="67.21076498679808" width="316.416"><g><svg viewBox="0 0 316.416 67.21076498679808" height="67.21076498679808" width="316.416"><g><svg viewBox="0 0 316.416 67.21076498679808" height="67.21076498679808" width="316.416"><g><svg viewBox="0 0 316.416 67.21076498679808" height="67.21076498679808" width="316.416"><g id="SvgjsG1080"><svg viewBox="0 0 316.416 67.21076498679808" height="67.21076498679808" width="316.416" id="SvgjsSvg1079"><g><svg viewBox="0 0 316.416 67.21076498679808" height="67.21076498679808" width="316.416"><g transform="matrix(1,0,0,1,0,0)"><svg width="316.416" viewBox="-2.05 -40.04 205.89000000000001 44.53" height="67.21076498679808" data-palette-color="url(#84e04dd7-e889-4820-bf55-b196aa8d7b80)"></svg></g></svg></g></svg></g></svg></g></svg></g></svg></g></svg></g></mask><g transform="matrix(1,0,0,1,39.55199999999999,89.99461750660095)"><svg viewBox="0 0 316.416 67.21076498679808" height="67.21076498679808" width="316.416"><g><svg viewBox="0 0 316.416 67.21076498679808" height="67.21076498679808" width="316.416"><g><svg viewBox="0 0 316.416 67.21076498679808" height="67.21076498679808" width="316.416"><g><svg viewBox="0 0 316.416 67.21076498679808" height="67.21076498679808" width="316.416"><g id="SvgjsG1078"><svg viewBox="0 0 316.416 67.21076498679808" height="67.21076498679808" width="316.416" id="SvgjsSvg1077"><g><svg viewBox="0 0 316.416 67.21076498679808" height="67.21076498679808" width="316.416"><g transform="matrix(1,0,0,1,0,0)"><svg width="316.416" viewBox="-2.05 -40.04 205.89000000000001 44.53" height="67.21076498679808" data-palette-color="url(#84e04dd7-e889-4820-bf55-b196aa8d7b80)"></svg></g></svg></g></svg></g></svg></g></svg></g></svg></g></svg></g><g mask="url(#dcaa08fe-e0c7-4128-93c7-c3fe80ac9d14)"><g transform="matrix(2.452, 0, 0, 2.452, 91.08574, 1)"><svg xmlns="http://www.w3.org/2000/svg" xmlns:xlink="http://www.w3.org/1999/xlink" version="1.1" x="0" y="0" viewBox="6.6080000000000005 0 87.00999999999999 100" enable-background="new 0 0 100 100" xml:space="preserve" height="100" width="87.00999999999999" class="icon-none" data-fill-palette-color="accent" id="SvgjsSvg1075"></svg></g></g></svg></g><defs><mask></mask></defs></svg></g></mask></svg></g></mask><linearGradient x1="0" x2="1" y1="0.5" y2="0.5" id="1f376c4e-972e-4fae-8a6e-004fbc347846"><stop stop-color="#f00b51" offset="0"></stop><stop stop-color="#730062" offset="1"></stop></linearGradient><rect width="395.52" height="247.2" fill="url(#1f376c4e-972e-4fae-8a6e-004fbc347846)" mask="url(#580b1311-546c-4824-bde4-6568085a545e)" data-fill-palette-color="accent"></rect></svg><rect width="395.52" height="247.2" fill="none" stroke="none" visibility="hidden"></rect></g></svg></g></svg>