<svg xmlns="http://www.w3.org/2000/svg" version="1.1" xmlns:xlink="http://www.w3.org/1999/xlink" xmlns:svgjs="http://svgjs.dev/svgjs" width="300" height="299" viewBox="0 0 2000 1999"><g transform="matrix(1,0,0,1,-0.431486880466764,-0.4312711370263287)"><svg viewBox="0 0 343 343" data-background-color="#c7a7a7" preserveAspectRatio="xMidYMid meet" height="1999" width="2000" xmlns="http://www.w3.org/2000/svg" xmlns:xlink="http://www.w3.org/1999/xlink"><g id="tight-bounds" transform="matrix(1,0,0,1,0.0740000000000407,0.07400000000001228)"><svg viewBox="0 0 342.85155851775386 342.85155851775386" height="342.85155851775386" width="342.85155851775386"><g><svg></svg></g><g><svg viewBox="0 0 342.85155851775386 342.85155851775386" height="342.85155851775386" width="342.85155851775386"><g><path d="M0 171.426c0-94.676 76.75-171.426 171.426-171.426 94.676 0 171.426 76.75 171.426 171.426 0 94.676-76.75 171.426-171.426 171.426-94.676 0-171.426-76.75-171.426-171.426zM171.426 332.529c88.975 0 161.103-72.128 161.103-161.103 0-88.975-72.128-161.103-161.103-161.104-88.975 0-161.103 72.128-161.104 161.104 0 88.975 72.128 161.103 161.104 161.103z" data-fill-palette-color="tertiary" fill="#621e98" stroke="transparent"></path><ellipse rx="164.56874808852186" ry="164.56874808852186" cx="171.42577925887693" cy="171.42577925887693" fill="#621e98" stroke="transparent" stroke-width="0" fill-opacity="1" data-fill-palette-color="tertiary"></ellipse></g><g transform="matrix(1,0,0,1,64.84655864529837,112.29966507576)"><svg viewBox="0 0 213.1584412271571 118.25222836623384" height="118.25222836623384" width="213.1584412271571"><g><svg viewBox="0 0 356.73120481399565 197.9009588087189" height="118.25222836623384" width="213.1584412271571"><g transform="matrix(1,0,0,1,0,3.1712587907808967)"><svg viewBox="0 0 139.31522998338698 191.55844122715712" height="191.55844122715712" width="139.31522998338698"><g id="textblocktransform"><svg viewBox="0 0 139.31522998338698 191.55844122715712" height="191.55844122715712" width="139.31522998338698" id="textblock"><g><svg viewBox="0 0 139.31522998338698 191.55844122715712" height="191.55844122715712" width="139.31522998338698"><g transform="matrix(1,0,0,1,0,0)"><svg width="139.31522998338698" viewBox="1.81 -36.04 26.560000000000002 36.53" height="191.55844122715712" data-palette-color="#ffffff"><path d="M22.19-9.16L22.19-9.16Q22.19-11.5 20.54-12.77 18.9-14.04 14.6-15.33 10.3-16.63 7.76-18.21L7.76-18.21Q2.91-21.26 2.91-26.17L2.91-26.17Q2.91-30.47 6.41-33.25 9.91-36.04 15.5-36.04L15.5-36.04Q19.21-36.04 22.12-34.67 25.02-33.3 26.68-30.77 28.34-28.25 28.34-25.17L28.34-25.17 22.19-25.17Q22.19-27.95 20.45-29.53 18.7-31.1 15.45-31.1L15.45-31.1Q12.43-31.1 10.75-29.81 9.08-28.52 9.08-26.2L9.08-26.2Q9.08-24.24 10.89-22.94 12.7-21.63 16.85-20.4 21-19.17 23.51-17.59 26.03-16.02 27.2-13.98 28.37-11.94 28.37-9.2L28.37-9.2Q28.37-4.76 24.96-2.14 21.56 0.49 15.72 0.49L15.72 0.49Q11.87 0.49 8.63-0.94 5.4-2.37 3.6-4.88 1.81-7.4 1.81-10.74L1.81-10.74 7.98-10.74Q7.98-7.71 9.99-6.05 11.99-4.39 15.72-4.39L15.72-4.39Q18.95-4.39 20.57-5.7 22.19-7.01 22.19-9.16Z" opacity="1" transform="matrix(1,0,0,1,0,0)" fill="#ffffff" class="wordmark-text-0" data-fill-palette-color="quaternary" id="text-0"></path></svg></g></svg></g></svg></g></svg></g><g transform="matrix(1,0,0,1,184.5375805545293,0)"><svg viewBox="0 0 172.1936242594663 197.9009588087189" height="197.9009588087189" width="172.1936242594663"><g><svg xmlns="http://www.w3.org/2000/svg" xmlns:xlink="http://www.w3.org/1999/xlink" version="1.1" x="0" y="0" viewBox="6.6080000000000005 0 87.00999999999999 100" enable-background="new 0 0 100 100" xml:space="preserve" height="197.9009588087189" width="172.1936242594663" class="icon-icon-0" data-fill-palette-color="quaternary" id="icon-0"><path d="M50.171 6.288c11.637 8.013 30.191 11.898 38.101 13.26 0.301 2.772 0.455 5.527 0.455 8.223 0 27.634-14.728 52.93-38.612 66.642C26.229 80.697 11.5 55.402 11.5 27.771c0-2.669 0.154-5.403 0.455-8.17C20.031 18.318 38.946 14.568 50.171 6.288M50.039 0C38.216 11.699 7.588 15.281 7.588 15.281c-0.628 4.078-0.98 8.24-0.98 12.49 0 31.327 17.64 58.512 43.506 72.229 25.87-13.718 43.504-40.902 43.504-72.229 0-4.25-0.346-8.412-0.973-12.49C92.646 15.281 62.822 11.34 50.039 0L50.039 0z" fill="#ffffff" data-fill-palette-color="quaternary"></path><path d="M20.738 26.015c-0.435 2.824-0.677 5.702-0.677 8.638 0 21.633 12.19 40.407 30.053 49.882 17.864-9.476 30.052-28.249 30.052-49.882 0-2.936-0.247-5.814-0.674-8.638 0 0-20.602-2.719-29.432-10.551C41.892 23.542 20.738 26.015 20.738 26.015z" fill="#ffffff" data-fill-palette-color="quaternary"></path></svg></g></svg></g></svg></g></svg></g></svg></g><defs></defs></svg><rect width="342.85155851775386" height="342.85155851775386" fill="none" stroke="none" visibility="hidden"></rect></g></svg></g></svg>