<svg xmlns="http://www.w3.org/2000/svg" version="1.1" xmlns:xlink="http://www.w3.org/1999/xlink" xmlns:svgjs="http://svgjs.dev/svgjs" width="500" height="311.75" viewBox="0 0 2000 1247"><g transform="matrix(1,0,0,1,-1.2121212121212466,0.504858299595071)"><svg viewBox="0 0 396 247" data-background-color="#ffffff" preserveAspectRatio="xMidYMid meet" height="1247" width="2000" xmlns="http://www.w3.org/2000/svg" xmlns:xlink="http://www.w3.org/1999/xlink"><g id="tight-bounds" transform="matrix(1,0,0,1,0.2400000000000091,-0.09999999999999432)"><svg viewBox="0 0 395.52 247.2" height="247.2" width="395.52"><g><svg></svg></g><g><svg viewBox="0 0 395.52 247.2" height="247.2" width="395.52"><mask id="50a94cc9-84b1-4d55-a5a1-2ed5dd37004b"><rect width="640" height="400" fill="white"></rect><g transform="matrix(1,0,0,1,153.58360743229886,65.92)"><svg viewBox="0 0 88.35278513540224 115.35999999999999" height="115.35999999999999" width="88.35278513540224"><g><svg viewBox="0 0 88.35278513540224 115.35999999999999" height="115.35999999999999" width="88.35278513540224"><g><svg viewBox="0 0 88.35278513540224 115.35999999999999" height="115.35999999999999" width="88.35278513540224"><g><svg viewBox="0 0 88.35278513540224 115.35999999999999" height="115.35999999999999" width="88.35278513540224"><g id="SvgjsG18344"><svg viewBox="0 0 88.35278513540224 115.35999999999999" height="115.35999999999999" width="88.35278513540224" id="SvgjsSvg18343"><g><svg viewBox="0 0 88.35278513540224 115.35999999999999" height="115.35999999999999" width="88.35278513540224"><g transform="matrix(1,0,0,1,0,0)"><svg width="88.35278513540224" viewBox="-0.31999993324279785 -38.040000915527344 31.279998779296875 40.53000259399414" height="115.35999999999999" data-palette-color="url(#dd1d7790-a462-4d80-a7ab-a5e8d9048c7b)"><path d="M21.61-9.33L21.61-9.33Q21.61-11.4 20.14-12.51 18.68-13.62 14.87-14.86 11.06-16.09 8.84-17.29L8.84-17.29Q2.78-20.56 2.78-26.1L2.78-26.1Q2.78-28.98 4.41-31.24 6.03-33.5 9.07-34.77 12.11-36.04 15.89-36.04L15.89-36.04Q19.7-36.04 22.68-34.66 25.66-33.28 27.31-30.76 28.96-28.25 28.96-25.05L28.96-25.05 21.63-25.05Q21.63-27.49 20.09-28.85 18.55-30.2 15.77-30.2L15.77-30.2Q13.09-30.2 11.6-29.06 10.11-27.93 10.11-26.07L10.11-26.07Q10.11-24.34 11.85-23.17 13.6-22 16.99-20.97L16.99-20.97Q23.24-19.09 26.1-16.31 28.96-13.53 28.96-9.38L28.96-9.38Q28.96-4.76 25.46-2.14 21.97 0.49 16.06 0.49L16.06 0.49Q11.96 0.49 8.59-1.01 5.22-2.51 3.45-5.13 1.68-7.74 1.68-11.18L1.68-11.18 9.03-11.18Q9.03-5.3 16.06-5.3L16.06-5.3Q18.68-5.3 20.14-6.36 21.61-7.42 21.61-9.33Z" opacity="1" transform="matrix(1,0,0,1,0,0)" fill="black" class="wordmark-text-0" id="SvgjsPath18342" stroke-width="3" stroke="black" stroke-linejoin="round"></path></svg></g></svg></g></svg></g></svg></g><g></g></svg></g></svg></g></svg></g></mask><g transform="matrix(1,0,0,1,153.58360743229886,65.92)"><svg viewBox="0 0 88.35278513540224 115.35999999999999" height="115.35999999999999" width="88.35278513540224"><g><svg viewBox="0 0 88.35278513540224 115.35999999999999" height="115.35999999999999" width="88.35278513540224"><g><svg viewBox="0 0 88.35278513540224 115.35999999999999" height="115.35999999999999" width="88.35278513540224"><g><svg viewBox="0 0 88.35278513540224 115.35999999999999" height="115.35999999999999" width="88.35278513540224"><g id="textblocktransform"><svg viewBox="0 0 88.35278513540224 115.35999999999999" height="115.35999999999999" width="88.35278513540224" id="textblock"><g><svg viewBox="0 0 88.35278513540224 115.35999999999999" height="115.35999999999999" width="88.35278513540224"><g transform="matrix(1,0,0,1,0,0)"><svg width="88.35278513540224" viewBox="-0.31999993324279785 -38.040000915527344 31.279998779296875 40.53000259399414" height="115.35999999999999" data-palette-color="url(#dd1d7790-a462-4d80-a7ab-a5e8d9048c7b)"></svg></g></svg></g></svg></g></svg></g><g></g></svg></g></svg></g></svg></g><g mask="url(#50a94cc9-84b1-4d55-a5a1-2ed5dd37004b)"><g transform="matrix(2.452, 0, 0, 2.452, 91.08574673461914, 1)"><svg xmlns="http://www.w3.org/2000/svg" xmlns:xlink="http://www.w3.org/1999/xlink" version="1.1" x="0" y="0" viewBox="6.607999801635742 0 87.00999450683594 100" enable-background="new 0 0 100 100" xml:space="preserve" height="100" width="87.00999450683594" class="icon-none" data-fill-palette-color="accent" id="none"></svg></g></g></svg></g><defs></defs><mask id="ecf6760a-0a71-4c3b-ba82-52a44c5f0258"><g id="SvgjsG18354"><svg viewBox="0 0 395.52 247.2" height="247.2" width="395.52"><g><svg></svg></g><g><svg viewBox="0 0 395.52 247.2" height="247.2" width="395.52"><mask id="SvgjsMask18353"><g transform="matrix(1,0,0,1,153.58360743229886,65.92)"><svg viewBox="0 0 88.35278513540224 115.35999999999999" height="115.35999999999999" width="88.35278513540224"><g><svg viewBox="0 0 88.35278513540224 115.35999999999999" height="115.35999999999999" width="88.35278513540224"><g><svg viewBox="0 0 88.35278513540224 115.35999999999999" height="115.35999999999999" width="88.35278513540224"><g><svg viewBox="0 0 88.35278513540224 115.35999999999999" height="115.35999999999999" width="88.35278513540224"><g id="SvgjsG18352"><svg viewBox="0 0 88.35278513540224 115.35999999999999" height="115.35999999999999" width="88.35278513540224" id="SvgjsSvg18351"><g><svg viewBox="0 0 88.35278513540224 115.35999999999999" height="115.35999999999999" width="88.35278513540224"><g transform="matrix(1,0,0,1,0,0)"><svg width="88.35278513540224" viewBox="-0.31999993324279785 -38.040000915527344 31.279998779296875 40.53000259399414" height="115.35999999999999" data-palette-color="url(#dd1d7790-a462-4d80-a7ab-a5e8d9048c7b)"></svg></g></svg></g></svg></g></svg></g><g></g></svg></g></svg></g></svg></g></mask><g transform="matrix(1,0,0,1,153.58360743229886,65.92)"><svg viewBox="0 0 88.35278513540224 115.35999999999999" height="115.35999999999999" width="88.35278513540224"><g><svg viewBox="0 0 88.35278513540224 115.35999999999999" height="115.35999999999999" width="88.35278513540224"><g><svg viewBox="0 0 88.35278513540224 115.35999999999999" height="115.35999999999999" width="88.35278513540224"><g><svg viewBox="0 0 88.35278513540224 115.35999999999999" height="115.35999999999999" width="88.35278513540224"><g id="SvgjsG18349"><svg viewBox="0 0 88.35278513540224 115.35999999999999" height="115.35999999999999" width="88.35278513540224" id="SvgjsSvg18348"><g><svg viewBox="0 0 88.35278513540224 115.35999999999999" height="115.35999999999999" width="88.35278513540224"><g transform="matrix(1,0,0,1,0,0)"><svg width="88.35278513540224" viewBox="-0.31999993324279785 -38.040000915527344 31.279998779296875 40.53000259399414" height="115.35999999999999" data-palette-color="url(#dd1d7790-a462-4d80-a7ab-a5e8d9048c7b)"><path d="M21.61-9.33L21.61-9.33Q21.61-11.4 20.14-12.51 18.68-13.62 14.87-14.86 11.06-16.09 8.84-17.29L8.84-17.29Q2.78-20.56 2.78-26.1L2.78-26.1Q2.78-28.98 4.41-31.24 6.03-33.5 9.07-34.77 12.11-36.04 15.89-36.04L15.89-36.04Q19.7-36.04 22.68-34.66 25.66-33.28 27.31-30.76 28.96-28.25 28.96-25.05L28.96-25.05 21.63-25.05Q21.63-27.49 20.09-28.85 18.55-30.2 15.77-30.2L15.77-30.2Q13.09-30.2 11.6-29.06 10.11-27.93 10.11-26.07L10.11-26.07Q10.11-24.34 11.85-23.17 13.6-22 16.99-20.97L16.99-20.97Q23.24-19.09 26.1-16.31 28.96-13.53 28.96-9.38L28.96-9.38Q28.96-4.76 25.46-2.14 21.97 0.49 16.06 0.49L16.06 0.49Q11.96 0.49 8.59-1.01 5.22-2.51 3.45-5.13 1.68-7.74 1.68-11.18L1.68-11.18 9.03-11.18Q9.03-5.3 16.06-5.3L16.06-5.3Q18.68-5.3 20.14-6.36 21.61-7.42 21.61-9.33Z" opacity="1" transform="matrix(1,0,0,1,0,0)" fill="white" class="wordmark-text-0" id="SvgjsPath18347"></path></svg></g></svg></g></svg></g></svg></g><g></g></svg></g></svg></g></svg></g><g mask="url(#50a94cc9-84b1-4d55-a5a1-2ed5dd37004b)"><g transform="matrix(2.452, 0, 0, 2.452, 91.08574673461914, 1)"><svg xmlns="http://www.w3.org/2000/svg" xmlns:xlink="http://www.w3.org/1999/xlink" version="1.1" x="0" y="0" viewBox="6.607999801635742 0 87.00999450683594 100" enable-background="new 0 0 100 100" xml:space="preserve" height="100" width="87.00999450683594" class="icon-none" data-fill-palette-color="accent" id="SvgjsSvg18346"></svg></g></g></svg></g><defs><mask></mask></defs></svg></g></mask><linearGradient x1="0" x2="1" y1="0.5" y2="0.5" id="dd1d7790-a462-4d80-a7ab-a5e8d9048c7b"><stop stop-color="#f00b51" offset="0"></stop><stop stop-color="#730062" offset="1"></stop></linearGradient><rect width="395.5199890136719" height="247.1999969482422" fill="url(#dd1d7790-a462-4d80-a7ab-a5e8d9048c7b)" mask="url(#ecf6760a-0a71-4c3b-ba82-52a44c5f0258)" data-fill-palette-color="primary"></rect><mask id="fde2ed6f-5d1d-45b1-a2e3-ce44e984d150"><g id="SvgjsG18370"><svg viewBox="0 0 395.52 247.2" height="247.2" width="395.52"><g><svg></svg></g><g><svg viewBox="0 0 395.52 247.2" height="247.2" width="395.52"><mask id="SvgjsMask18369"><g transform="matrix(1,0,0,1,153.58360743229886,65.92)"><svg viewBox="0 0 88.35278513540224 115.35999999999999" height="115.35999999999999" width="88.35278513540224"><g><svg viewBox="0 0 88.35278513540224 115.35999999999999" height="115.35999999999999" width="88.35278513540224"><g><svg viewBox="0 0 88.35278513540224 115.35999999999999" height="115.35999999999999" width="88.35278513540224"><g><svg viewBox="0 0 88.35278513540224 115.35999999999999" height="115.35999999999999" width="88.35278513540224"><g id="SvgjsG18368"><svg viewBox="0 0 88.35278513540224 115.35999999999999" height="115.35999999999999" width="88.35278513540224" id="SvgjsSvg18367"><g><svg viewBox="0 0 88.35278513540224 115.35999999999999" height="115.35999999999999" width="88.35278513540224"><g transform="matrix(1,0,0,1,0,0)"><svg width="88.35278513540224" viewBox="-0.31999993324279785 -38.040000915527344 31.279998779296875 40.53000259399414" height="115.35999999999999" data-palette-color="url(#dd1d7790-a462-4d80-a7ab-a5e8d9048c7b)"></svg></g></svg></g></svg></g></svg></g><g></g></svg></g></svg></g></svg></g></mask><g transform="matrix(1,0,0,1,153.58360743229886,65.92)"><svg viewBox="0 0 88.35278513540224 115.35999999999999" height="115.35999999999999" width="88.35278513540224"><g><svg viewBox="0 0 88.35278513540224 115.35999999999999" height="115.35999999999999" width="88.35278513540224"><g><svg viewBox="0 0 88.35278513540224 115.35999999999999" height="115.35999999999999" width="88.35278513540224"><g><svg viewBox="0 0 88.35278513540224 115.35999999999999" height="115.35999999999999" width="88.35278513540224"><g id="SvgjsG18365"><svg viewBox="0 0 88.35278513540224 115.35999999999999" height="115.35999999999999" width="88.35278513540224" id="SvgjsSvg18364"><g><svg viewBox="0 0 88.35278513540224 115.35999999999999" height="115.35999999999999" width="88.35278513540224"><g transform="matrix(1,0,0,1,0,0)"><svg width="88.35278513540224" viewBox="-0.31999993324279785 -38.040000915527344 31.279998779296875 40.53000259399414" height="115.35999999999999" data-palette-color="url(#dd1d7790-a462-4d80-a7ab-a5e8d9048c7b)"></svg></g></svg></g></svg></g></svg></g><g></g></svg></g></svg></g></svg></g><g mask="url(#50a94cc9-84b1-4d55-a5a1-2ed5dd37004b)"><g transform="matrix(2.452, 0, 0, 2.452, 91.08574673461914, 1)"><svg xmlns="http://www.w3.org/2000/svg" xmlns:xlink="http://www.w3.org/1999/xlink" version="1.1" x="0" y="0" viewBox="6.607999801635742 0 87.00999450683594 100" enable-background="new 0 0 100 100" xml:space="preserve" height="100" width="87.00999450683594" class="icon-none" data-fill-palette-color="accent" id="SvgjsSvg18363"><path d="M50.171 6.288c11.637 8.013 30.191 11.898 38.101 13.26 0.301 2.772 0.455 5.527 0.455 8.223 0 27.634-14.728 52.93-38.612 66.642C26.229 80.697 11.5 55.402 11.5 27.771c0-2.669 0.154-5.403 0.455-8.17C20.031 18.318 38.946 14.568 50.171 6.288M50.039 0C38.216 11.699 7.588 15.281 7.588 15.281c-0.628 4.078-0.98 8.24-0.98 12.49 0 31.327 17.64 58.512 43.506 72.229 25.87-13.718 43.504-40.902 43.504-72.229 0-4.25-0.346-8.412-0.973-12.49C92.646 15.281 62.822 11.34 50.039 0L50.039 0z" fill="white"></path><path d="M20.738 26.015c-0.435 2.824-0.677 5.702-0.677 8.638 0 21.633 12.19 40.407 30.053 49.882 17.864-9.476 30.052-28.249 30.052-49.882 0-2.936-0.247-5.814-0.674-8.638 0 0-20.602-2.719-29.432-10.551C41.892 23.542 20.738 26.015 20.738 26.015z" fill="white"></path></svg></g></g></svg></g><defs><mask></mask></defs><mask><g id="SvgjsG18362"><svg viewBox="0 0 395.52 247.2" height="247.2" width="395.52"><g><svg></svg></g><g><svg viewBox="0 0 395.52 247.2" height="247.2" width="395.52"><mask id="SvgjsMask18361"><g transform="matrix(1,0,0,1,153.58360743229886,65.92)"><svg viewBox="0 0 88.35278513540224 115.35999999999999" height="115.35999999999999" width="88.35278513540224"><g><svg viewBox="0 0 88.35278513540224 115.35999999999999" height="115.35999999999999" width="88.35278513540224"><g><svg viewBox="0 0 88.35278513540224 115.35999999999999" height="115.35999999999999" width="88.35278513540224"><g><svg viewBox="0 0 88.35278513540224 115.35999999999999" height="115.35999999999999" width="88.35278513540224"><g id="SvgjsG18360"><svg viewBox="0 0 88.35278513540224 115.35999999999999" height="115.35999999999999" width="88.35278513540224" id="SvgjsSvg18359"><g><svg viewBox="0 0 88.35278513540224 115.35999999999999" height="115.35999999999999" width="88.35278513540224"><g transform="matrix(1,0,0,1,0,0)"><svg width="88.35278513540224" viewBox="-0.31999993324279785 -38.040000915527344 31.279998779296875 40.53000259399414" height="115.35999999999999" data-palette-color="url(#dd1d7790-a462-4d80-a7ab-a5e8d9048c7b)"></svg></g></svg></g></svg></g></svg></g><g></g></svg></g></svg></g></svg></g></mask><g transform="matrix(1,0,0,1,153.58360743229886,65.92)"><svg viewBox="0 0 88.35278513540224 115.35999999999999" height="115.35999999999999" width="88.35278513540224"><g><svg viewBox="0 0 88.35278513540224 115.35999999999999" height="115.35999999999999" width="88.35278513540224"><g><svg viewBox="0 0 88.35278513540224 115.35999999999999" height="115.35999999999999" width="88.35278513540224"><g><svg viewBox="0 0 88.35278513540224 115.35999999999999" height="115.35999999999999" width="88.35278513540224"><g id="SvgjsG18358"><svg viewBox="0 0 88.35278513540224 115.35999999999999" height="115.35999999999999" width="88.35278513540224" id="SvgjsSvg18357"><g><svg viewBox="0 0 88.35278513540224 115.35999999999999" height="115.35999999999999" width="88.35278513540224"><g transform="matrix(1,0,0,1,0,0)"><svg width="88.35278513540224" viewBox="-0.31999993324279785 -38.040000915527344 31.279998779296875 40.53000259399414" height="115.35999999999999" data-palette-color="url(#dd1d7790-a462-4d80-a7ab-a5e8d9048c7b)"></svg></g></svg></g></svg></g></svg></g><g></g></svg></g></svg></g></svg></g><g mask="url(#50a94cc9-84b1-4d55-a5a1-2ed5dd37004b)"><g transform="matrix(2.452, 0, 0, 2.452, 91.08574673461914, 1)"><svg xmlns="http://www.w3.org/2000/svg" xmlns:xlink="http://www.w3.org/1999/xlink" version="1.1" x="0" y="0" viewBox="6.607999801635742 0 87.00999450683594 100" enable-background="new 0 0 100 100" xml:space="preserve" height="100" width="87.00999450683594" class="icon-none" data-fill-palette-color="accent" id="SvgjsSvg18355"></svg></g></g></svg></g><defs><mask></mask></defs></svg></g></mask></svg></g></mask><linearGradient x1="0" x2="1" y1="0.5" y2="0.5" id="d1347e77-dfd3-4d78-852d-7485d19a5e2a"><stop stop-color="#f00b51" offset="0"></stop><stop stop-color="#730062" offset="1"></stop></linearGradient><rect width="395.5199890136719" height="247.1999969482422" fill="url(#d1347e77-dfd3-4d78-852d-7485d19a5e2a)" mask="url(#fde2ed6f-5d1d-45b1-a2e3-ce44e984d150)" data-fill-palette-color="accent"></rect></svg><rect width="395.52" height="247.2" fill="none" stroke="none" visibility="hidden"></rect></g></svg></g></svg>